<svg width="82" height="46" viewBox="0 0 82 46" fill="none" xmlns="http://www.w3.org/2000/svg">
<g id="player-vs-player">
<circle id="Oval Copy 17" cx="59" cy="23" r="23" fill="black"/>
<circle id="Oval Copy 11" cx="59" cy="23" r="20" fill="#FFCE67"/>
<g id="Group 8">
<path id="Oval Copy 11_2" d="M74.5834 21.2085C74.5834 27.5598 69.4346 32.7085 63.0834 32.7085C56.7321 32.7085 51.5834 27.5598 51.5834 21.2085H54.5834C54.5834 25.9029 58.389 29.7085 63.0834 29.7085C67.7778 29.7085 71.5834 25.9029 71.5834 21.2085H74.5834Z" fill="black"/>
<g id="Group 7">
<path id="Path" d="M62.375 14.6667V19.6538H59.375V14.6667H62.375Z" fill="black"/>
<path id="Path Copy" d="M70.7084 14.6667V19.6538H67.7084V14.6667H70.7084Z" fill="black"/>
</g>
</g>
<circle id="Oval Copy 18" cx="23" cy="23" r="23" fill="black"/>
<g id="Group 2">
<circle id="Oval Copy 11_3" cx="23" cy="23" r="20" fill="#FFCE67"/>
<g id="Group 8_2">
<path id="Oval Copy 11_4" d="M38.5834 21.2085C38.5834 27.5598 33.4346 32.7085 27.0834 32.7085C20.7321 32.7085 15.5834 27.5598 15.5834 21.2085H18.5834C18.5834 25.9029 22.389 29.7085 27.0834 29.7085C31.7778 29.7085 35.5834 25.9029 35.5834 21.2085H38.5834Z" fill="black"/>
<g id="Group 7_2">
<path id="Path_2" d="M26.375 14.6667V19.6538H23.375V14.6667H26.375Z" fill="black"/>
<path id="Path Copy_2" d="M34.7084 14.6667V19.6538H31.7084V14.6667H34.7084Z" fill="black"/>
</g>
</g>
</g>
</g>
</svg>
